<svg width="39" height="33" viewBox="0 0 39 33" fill="none" xmlns="http://www.w3.org/2000/svg">
  <mask id="cutout" style="mask-type:luminance" maskUnits="userSpaceOnUse" x="6" y="3" width="27" height="28">
    <path d="M33 4H6V30H33V4Z" fill="white"/>
    <path d="M14 30H12V26.18L12.804 26.02C14.262 25.727 16 24.62 16 21V19.618L12 17.618V15.382L16 13.382V13C16 7.533 19.925 4 26 4H28V7.82L27.196 7.98C25.738 8.273 24 9.38 24 13V13.382L28 15.382V17.618L24 19.618V21C24 26.467 20.075 30 14 30ZM14 28C18.935 28 22 25.318 22 21V18.382L25.764 16.5L22 14.618V13C22 8.422 24.385 6.808 26 6.24V6C21.065 6 18 8.682 18 13V14.618L14.236 16.5L18 18.382V21C18 25.578 15.615 27.192 14 27.76V28Z" fill="black" stroke="black" stroke-width="1.6"/>
  </mask>
  <g mask="url(#cutout)">
    <path d="M19.9066 5.70625C14.1378 5.70625 14.5026 8.20062 14.5026 8.20062V10.7925H19.9886V11.605H12.3178C12.3178 11.605 8.625 11.15 8.625 17.0041C8.625 22.8581 11.8856 22.6201 11.8856 22.6201H13.7681V19.8893C13.7681 19.8893 13.6625 16.6287 16.9369 16.6287H22.431C22.431 16.6287 25.4957 16.6774 25.4957 13.6614V8.7125C25.4957 8.7125 25.9605 5.6965 19.9366 5.6965L19.9066 5.70625ZM16.8743 7.44256C17.0693 7.43764 17.2615 7.49067 17.4264 7.59493C17.5912 7.6992 17.7215 7.85003 17.8007 8.02833C17.8799 8.20664 17.9044 8.40442 17.8711 8.59666C17.8379 8.78891 17.7484 8.96698 17.614 9.10835C17.4795 9.24973 17.3062 9.34806 17.1158 9.39091C16.9255 9.43376 16.7268 9.41921 16.5447 9.34909C16.3626 9.27898 16.2055 9.15645 16.093 8.997C15.9806 8.83755 15.918 8.64835 15.9131 8.45331V8.43706C15.9131 8.17546 16.017 7.92457 16.202 7.73959C16.387 7.55461 16.6379 7.45069 16.8995 7.45069L16.8743 7.44256Z" fill="url(#pyt)" fill-opacity="0.5"/>
    <path d="M20.0691 28.3019C25.8378 28.3019 25.473 25.7994 25.473 25.7994V23.2156H19.9878V22.4031H27.6822C27.6822 22.4031 31.375 22.8159 31.375 16.9959C31.375 11.176 28.1144 11.3799 28.1144 11.3799H26.2075V14.075C26.2075 14.075 26.3131 17.3356 23.0387 17.3356H17.5422C17.5422 17.3356 14.475 17.2893 14.475 20.3053V25.2875C14.475 25.2875 14.0103 28.3035 20.0341 28.3035H20.0666L20.0691 28.3019ZM23.1013 26.5574C22.9063 26.5624 22.7142 26.5093 22.5493 26.4051C22.3844 26.3008 22.2541 26.15 22.1749 25.9717C22.0958 25.7934 22.0712 25.5956 22.1045 25.4033C22.1377 25.2111 22.2272 25.033 22.3617 24.8916C22.4961 24.7503 22.6694 24.6519 22.8598 24.6091C23.0501 24.5662 23.2489 24.5808 23.4309 24.6509C23.613 24.721 23.7702 24.8436 23.8826 25.003C23.995 25.1624 24.0576 25.3517 24.0625 25.5467V25.5711C24.0625 25.8327 23.9586 26.0836 23.7736 26.2685C23.5886 26.4535 23.3377 26.5574 23.0761 26.5574H23.1013Z" fill="url(#hon)" fill-opacity="0.5"/>
  </g>
  <path d="M14 30H12V26.18L12.804 26.02C14.262 25.727 16 24.62 16 21V19.618L12 17.618V15.382L16 13.382V13C16 7.533 19.925 4 26 4H28V7.82L27.196 7.98C25.738 8.273 24 9.38 24 13V13.382L28 15.382V17.618L24 19.618V21C24 26.467 20.075 30 14 30ZM14 28C18.935 28 22 25.318 22 21V18.382L25.764 16.5L22 14.618V13C22 8.422 24.385 6.808 26 6.24V6C21.065 6 18 8.682 18 13V14.618L14.236 16.5L18 18.382V21C18 25.578 15.615 27.192 14 27.76V28Z" fill="#888888" fill-opacity="1"/>
  <path d="M9.77682 11.3644L9.75972 12.0342L7.00415 11.4336L7.03706 10.1441L9.77682 11.3644ZM9.62381 17.3585L9.60672 18.0283L6.85114 17.4278L6.88406 16.1382L9.62381 17.3585ZM9.47081 23.3526L9.45372 24.0224L6.69814 23.4219L6.73106 22.1323L9.47081 23.3526Z" fill="#C98A7D"/>
  <path d="M32.7855 11.0245L32.7526 12.3141L30.0128 11.0938L30.0299 10.424L32.7855 11.0245ZM32.6325 17.0186L32.5996 18.3082L29.8598 17.0879L29.8769 16.4181L32.6325 17.0186ZM32.4795 23.0128L32.4466 24.3023L29.7068 23.082L29.7239 22.4123L32.4795 23.0128Z" fill="#C98A7D"/>
<defs>
  <linearGradient id="pyt" x1="10.8733" y1="7.91861" x2="21.6687" y2="18.6896" gradientUnits="userSpaceOnUse">
    <stop stop-color="#387EB8"/>
    <stop offset="1" stop-color="#366994"/>
  </linearGradient>
  <linearGradient id="hon" x1="17.2598" y1="14.9351" x2="29.5937" y2="25.7028" gradientUnits="userSpaceOnUse">
    <stop stop-color="#FFE052"/>
    <stop offset="1" stop-color="#FFC331"/>
  </linearGradient>
</defs>
</svg>
