<svg width="27" height="26" viewBox="0 0 27 26" fill="none" xmlns="http://www.w3.org/2000/svg">
  <defs>
    <g id="carbon:function">
      <path d="M8 26H6V22.18L6.804 22.02C8.262 21.727 10 20.62 10 17V15.618L6 13.618V11.382L10 9.382V9C10 3.533 13.925 0 20 0H22V3.82L21.196 3.98C19.738 4.273 18 5.38 18 9V9.382L22 11.382V13.618L18 15.618V17C18 22.467 14.075 26 8 26ZM8 24C12.935 24 16 21.318 16 17V14.382L19.764 12.5L16 10.618V9C16 4.422 18.385 2.808 20 2.24V2C15.065 2 12 4.682 12 9V10.618L8.236 12.5L12 14.382V17C12 21.578 9.615 23.192 8 23.76V24Z" />
    </g>
    <mask id="cutout">
      <rect width="100%" height="100%" fill="white"/>
      <use href="#carbon:function" fill="black" stroke="black" stroke-width="1.6" />
    </mask>
  </defs>
  <g mask="url(#cutout)">
    <path d="M13.9066 1.70625C8.13781 1.70625 8.50263 4.20062 8.50263 4.20062V6.7925H13.9886V7.605H6.31781C6.31781 7.605 2.625 7.15 2.625 13.0041C2.625 18.8581 5.88556 18.6201 5.88556 18.6201H7.76812V15.8893C7.76812 15.8893 7.6625 12.6287 10.9369 12.6287H16.431C16.431 12.6287 19.4957 12.6774 19.4957 9.66144V4.7125C19.4957 4.7125 19.9605 1.6965 13.9366 1.6965L13.9066 1.70625ZM10.8743 3.44256C11.0693 3.43764 11.2615 3.49067 11.4264 3.59493C11.5912 3.6992 11.7215 3.85003 11.8007 4.02833C11.8799 4.20664 11.9044 4.40442 11.8711 4.59666C11.8379 4.78891 11.7484 4.96698 11.614 5.10835C11.4795 5.24973 11.3062 5.34806 11.1158 5.39091C10.9255 5.43376 10.7268 5.41921 10.5447 5.34909C10.3626 5.27898 10.2055 5.15645 10.093 4.997C9.98062 4.83755 9.91801 4.64835 9.91313 4.45331V4.43706C9.91313 4.17546 10.017 3.92457 10.202 3.73959C10.387 3.55461 10.6379 3.45069 10.8995 3.45069L10.8743 3.44256Z" fill="url(#pyt)" fill-opacity="0.15"/>
    <path d="M14.0691 24.3019C19.8378 24.3019 19.473 21.7994 19.473 21.7994V19.2156H13.9878V18.4031H21.6822C21.6822 18.4031 25.375 18.8159 25.375 12.9959C25.375 7.176 22.1144 7.37994 22.1144 7.37994H20.2075V10.075C20.2075 10.075 20.3131 13.3356 17.0387 13.3356H11.5422C11.5422 13.3356 8.475 13.2893 8.475 16.3053V21.2875C8.475 21.2875 8.01025 24.3035 14.0341 24.3035H14.0666L14.0691 24.3019ZM17.1013 22.5574C16.9063 22.5624 16.7142 22.5093 16.5493 22.4051C16.3844 22.3008 16.2541 22.15 16.1749 21.9717C16.0958 21.7934 16.0712 21.5956 16.1045 21.4033C16.1377 21.2111 16.2272 21.033 16.3617 20.8916C16.4961 20.7503 16.6694 20.6519 16.8598 20.6091C17.0501 20.5662 17.2489 20.5808 17.4309 20.6509C17.613 20.721 17.7702 20.8436 17.8826 21.003C17.995 21.1624 18.0576 21.3517 18.0625 21.5467V21.5711C18.0625 21.8327 17.9586 22.0836 17.7736 22.2685C17.5886 22.4535 17.3377 22.5574 17.0761 22.5574H17.1013Z" fill="url(#hon)" fill-opacity="0.15"/>
  </g>
  <use href="#carbon:function" fill="#888"/>
  <path d="M3.77682 7.36437L3.75972 8.03415L1.00415 7.43364L1.03706 6.14406L3.77682 7.36437ZM3.62381 13.3585L3.60672 14.0283L0.851144 13.4278L0.88406 12.1382L3.62381 13.3585ZM3.47081 19.3526L3.45372 20.0224L0.698142 19.4219L0.731058 18.1323L3.47081 19.3526Z" fill="#C98A7D"/>
  <path d="M26.7855 7.02448L26.7526 8.31406L24.0128 7.09375L24.0299 6.42397L26.7855 7.02448ZM26.6325 13.0186L26.5996 14.3082L23.8598 13.0879L23.8769 12.4181L26.6325 13.0186ZM26.4795 19.0128L26.4466 20.3023L23.7068 19.082L23.7239 18.4123L26.4795 19.0128Z" fill="#C98A7D"/>
  <defs>
    <linearGradient id="pyt" x1="4.87332" y1="3.91861" x2="15.6687" y2="14.6896" gradientUnits="userSpaceOnUse">
      <stop stop-color="#387EB8"/>
      <stop offset="1" stop-color="#366994"/>
    </linearGradient>
    <linearGradient id="hon" x1="11.2598" y1="10.9351" x2="23.5937" y2="21.7028" gradientUnits="userSpaceOnUse">
      <stop stop-color="#FFE052"/>
      <stop offset="1" stop-color="#FFC331"/>
    </linearGradient>
  </defs>
</svg>
