<svg width="39" height="33" viewBox="0 0 39 33" fill="none" xmlns="http://www.w3.org/2000/svg">
  <defs>
    <g id="carbon:function">
      <path d="M11 30H9V26.18L9.804 26.02C11.262 25.727 13 24.62 13 21V19.618L9 17.618V15.382L13 13.382V13C13 7.533 16.925 4 23 4H25V7.82L24.196 7.98C22.738 8.273 21 9.38 21 13V13.382L25 15.382V17.618L21 19.618V21C21 26.467 17.075 30 11 30ZM11 28C15.935 28 19 25.318 19 21V18.382L22.764 16.5L19 14.618V13C19 8.422 21.385 6.808 23 6.24V6C18.065 6 15 8.682 15 13V14.618L11.236 16.5L15 18.382V21C15 25.578 12.615 27.192 11 27.76V28Z"/>
    </g>
    <mask id="cutout">
      <rect width="100%" height="100%" fill="white"/>
      <use href="#carbon:function" fill="black" stroke="black" stroke-width="1.8" />
    </mask>
  </defs>
  <path d="M5.848 10.98H4.828L8.176 0.611999H9.172L5.848 10.98Z" fill="#6A7669"/>
  <path d="M25.848 32.98H24.828L28.176 22.612H29.172L25.848 32.98Z" fill="#6A7669"/>
  <path d="M12.444 3.996C12.66 4.196 12.884 4.408 13.116 4.632C13.348 4.848 13.544 5.08 13.704 5.328L13.752 5.388L12.912 6L12.852 5.928C12.684 5.688 12.532 5.428 12.396 5.148C12.26 4.86 12.132 4.584 12.012 4.32C11.884 4.584 11.752 4.86 11.616 5.148C11.48 5.428 11.32 5.688 11.136 5.928L11.076 5.988L10.248 5.388L10.308 5.316C10.484 5.068 10.684 4.836 10.908 4.62C11.132 4.404 11.352 4.196 11.568 3.996C11.272 3.956 10.968 3.916 10.656 3.876C10.344 3.828 10.048 3.756 9.768 3.66L9.684 3.636L10.008 2.652L10.092 2.688C10.372 2.8 10.652 2.924 10.932 3.06C11.22 3.196 11.492 3.336 11.748 3.48C11.684 3.192 11.624 2.892 11.568 2.58C11.52 2.268 11.496 1.96 11.496 1.656V1.572H12.528V1.656C12.528 1.96 12.5 2.268 12.444 2.58C12.396 2.892 12.34 3.192 12.276 3.48C12.532 3.328 12.8 3.188 13.08 3.06C13.36 2.924 13.64 2.804 13.92 2.7L14.004 2.664L14.316 3.648L14.244 3.672C13.956 3.76 13.656 3.828 13.344 3.876C13.04 3.924 12.74 3.964 12.444 3.996Z" fill="#6A7669"/>
  <path d="M22.444 29.996C22.66 30.196 22.884 30.408 23.116 30.632C23.348 30.848 23.544 31.08 23.704 31.328L23.752 31.388L22.912 32L22.852 31.928C22.684 31.688 22.532 31.428 22.396 31.148C22.26 30.86 22.132 30.584 22.012 30.32C21.884 30.584 21.752 30.86 21.616 31.148C21.48 31.428 21.32 31.688 21.136 31.928L21.076 31.988L20.248 31.388L20.308 31.316C20.484 31.068 20.684 30.836 20.908 30.62C21.132 30.404 21.352 30.196 21.568 29.996C21.272 29.956 20.968 29.916 20.656 29.876C20.344 29.828 20.048 29.756 19.768 29.66L19.684 29.636L20.008 28.652L20.092 28.688C20.372 28.8 20.652 28.924 20.932 29.06C21.22 29.196 21.492 29.336 21.748 29.48C21.684 29.192 21.624 28.892 21.568 28.58C21.52 28.268 21.496 27.96 21.496 27.656V27.572H22.528V27.656C22.528 27.96 22.5 28.268 22.444 28.58C22.396 28.892 22.34 29.192 22.276 29.48C22.532 29.328 22.8 29.188 23.08 29.06C23.36 28.924 23.64 28.804 23.92 28.7L24.004 28.664L24.316 29.648L24.244 29.672C23.956 29.76 23.656 29.828 23.344 29.876C23.04 29.924 22.74 29.964 22.444 29.996Z" fill="#6A7669"/>
  <g mask="url(#cutout)">
    <path d="M22.4473 22.1975C24.016 23.7581 26.1388 24.6341 28.3515 24.6341C30.5642 24.6341 32.687 23.7581 34.2558 22.1975L32.1301 20.0802C31.126 21.0786 29.7675 21.639 28.3515 21.639C26.9355 21.639 25.577 21.0786 24.5729 20.0802C24.077 19.587 23.6836 19.0006 23.4151 18.3548C23.1466 17.709 23.0084 17.0164 23.0084 16.317C23.0084 15.6176 23.1466 14.9251 23.4151 14.2793C23.6836 13.6335 24.077 13.0471 24.5729 12.5539C25.577 11.5555 26.9355 10.9951 28.3515 10.9951C29.7675 10.9951 31.126 11.5555 32.1301 12.5539L33.1929 11.4958L34.2558 10.4365C32.687 8.87601 30.5642 8 28.3515 8C26.1388 8 24.016 8.87601 22.4473 10.4365C21.6717 11.2069 21.0562 12.1231 20.6362 13.1323C20.2162 14.1416 20 15.2239 20 16.317C20 17.4102 20.2162 18.4925 20.6362 19.5017C21.0562 20.511 21.6717 21.4272 22.4473 22.1975Z" stroke="#C6A0F6" stroke-opacity="0.15" stroke-linecap="round" stroke-linejoin="round"/>
    <path d="M28.3584 14V18.75M26 16.375H30.7488M35.4668 14V18.75M33.1084 16.375H37.8584" stroke="#C6A0F6" stroke-opacity="0.15" stroke-linecap="round" stroke-linejoin="round"/>
  </g>
  <path d="M3.44798 22.2018C5.0172 23.7628 7.14059 24.6391 9.35399 24.6391C11.5674 24.6391 13.6908 23.7628 15.26 22.2018L13.1337 20.0838C12.1293 21.0825 10.7704 21.6431 9.35399 21.6431C7.93755 21.6431 6.57868 21.0825 5.57424 20.0838C5.07825 19.5904 4.68466 19.0039 4.41609 18.3579C4.14752 17.7119 4.00926 17.0191 4.00926 16.3195C4.00926 15.6199 4.14752 14.9272 4.41609 14.2812C4.68466 13.6352 5.07825 13.0486 5.57424 12.5552C6.57868 11.5565 7.93755 10.9959 9.35399 10.9959C10.7704 10.9959 12.1293 11.5565 13.1337 12.5552L14.1969 11.4968L15.26 10.4373C13.6908 8.87627 11.5674 8 9.35399 8C7.14059 8 5.0172 8.87627 3.44798 10.4373C2.67222 11.2079 2.05655 12.1243 1.63642 13.1339C1.21629 14.1434 1 15.2261 1 16.3195C1 17.413 1.21629 18.4956 1.63642 19.5052C2.05655 20.5147 2.67222 21.4312 3.44798 22.2018Z" stroke="#8AADF4" stroke-opacity="0.15" stroke-linecap="round" stroke-linejoin="round" mask="url(#cutout)"/>
  <use href="#carbon:function" fill="#888b"/>
</svg>
